<svg width="32" height="32" viewBox="0 0 32 32" xmlns="http://www.w3.org/2000/svg">
  <g fill="none" fill-rule="evenodd">
    <path d="M27.817 26.646H4.183c-2.166 0-3.937-1.773-3.937-3.938V8.923C.253 6.75 2.012 4.99 4.186 4.985h23.63c2.166 0 3.938 1.772 3.938 3.938v13.785c0 2.165-1.77 3.937-3.937 3.938zm-6.895-7.89c0-.344-.045-.67-.137-.974-.09-.304-.202-.57-.332-.794-.13-.225-.316-.444-.558-.66-.243-.213-.46-.386-.654-.517-.192-.13-.457-.278-.795-.44-.337-.163-.604-.284-.8-.364-.197-.08-.482-.188-.854-.326-.33-.125-.575-.22-.737-.286-.162-.065-.374-.16-.638-.28-.263-.12-.46-.228-.59-.322-.13-.093-.27-.207-.416-.342-.15-.135-.252-.278-.312-.43-.06-.153-.09-.32-.09-.5 0-.47.21-.853.633-1.15.422-.298.967-.447 1.634-.447.295 0 .596.04.9.12.307.08.57.17.787.27.218.1.424.21.617.33.193.123.33.214.41.276.082.062.133.103.154.124.092.07.187.093.286.073.105-.007.186-.063.242-.166l.854-1.514c.084-.14.067-.27-.053-.395-.043-.04-.096-.09-.16-.144-.062-.055-.2-.156-.41-.3-.21-.146-.434-.276-.67-.39-.235-.114-.54-.23-.916-.348-.376-.117-.764-.197-1.165-.238V6.794c0-.097-.033-.177-.096-.24-.063-.06-.144-.092-.242-.092H15.39c-.092 0-.17.032-.238.098-.067.066-.1.144-.1.234V8.66c-1.103.21-2 .672-2.688 1.392-.69.72-1.033 1.556-1.033 2.51 0 .284.03.554.09.81s.134.486.222.69c.088.204.213.405.374.602.162.197.315.367.46.508.143.142.33.29.563.44.23.154.43.276.594.37.165.093.385.2.66.32.273.123.49.214.647.276l.65.26c.38.145.66.258.842.337.183.08.415.19.696.332.28.142.487.272.617.39.13.117.247.262.353.435.105.173.158.356.158.55 0 .546-.216.968-.648 1.266-.433.297-.933.446-1.502.446-.26 0-.52-.028-.78-.083-.914-.18-1.767-.61-2.56-1.296l-.023-.02c-.063-.077-.147-.108-.252-.094-.112.014-.193.055-.242.124l-1.085 1.4c-.106.14-.1.28.02.427.036.042.097.104.185.187s.25.213.49.39c.24.176.5.342.78.498.28.155.638.31 1.07.46.432.153.88.26 1.344.323v1.816c0 .09.033.168.1.233.067.066.146.1.237.1h1.422c.098 0 .18-.032.242-.095.063-.062.095-.14.095-.238v-1.816c1.116-.18 2.024-.652 2.724-1.416.7-.765 1.048-1.676 1.048-2.735z"/>
    <path d="M0 0h32v32H0z"/>
  </g>
</svg>
