<svg width="32" height="32" viewBox="0 0 45 32" xmlns="http://www.w3.org/2000/svg">
<title>svg</title>
<path d="M38.702 31.507h-32.882c-3.014 0-5.478-2.467-5.478-5.479v-19.179c0.010-3.023 2.457-5.472 5.482-5.479h32.877c3.014 0 5.479 2.465 5.479 5.479v19.179c0 3.012-2.463 5.478-5.478 5.479v0zM29.112 20.358c0-0.455-0.064-0.883-0.191-1.284-0.128-0.403-0.281-0.751-0.462-1.046s-0.44-0.584-0.779-0.867c-0.334-0.282-0.64-0.511-0.907-0.682-0.269-0.174-0.64-0.367-1.107-0.582-0.469-0.214-0.84-0.373-1.113-0.479-0.275-0.104-0.671-0.248-1.19-0.431-0.459-0.163-0.801-0.288-1.025-0.376-0.225-0.083-0.522-0.209-0.888-0.367-0.367-0.16-0.64-0.302-0.821-0.424s-0.376-0.273-0.58-0.451c-0.205-0.177-0.348-0.365-0.431-0.565s-0.125-0.417-0.125-0.657c0-0.619 0.292-1.124 0.879-1.517 0.587-0.39 1.344-0.584 2.273-0.584 0.41 0 0.828 0.050 1.252 0.156 0.427 0.104 0.79 0.223 1.094 0.355 0.303 0.131 0.59 0.275 0.858 0.435 0.267 0.16 0.459 0.278 0.57 0.362s0.184 0.136 0.213 0.164c0.125 0.092 0.259 0.125 0.395 0.097 0.147-0.010 0.259-0.083 0.338-0.218l1.187-1.995c0.118-0.181 0.093-0.356-0.072-0.52-0.058-0.056-0.131-0.118-0.218-0.191-0.089-0.074-0.278-0.206-0.573-0.398-0.292-0.191-0.601-0.362-0.929-0.512-0.327-0.15-0.751-0.302-1.276-0.459-0.523-0.153-1.063-0.257-1.619-0.312v-2.4c0-0.128-0.042-0.232-0.131-0.314-0.088-0.083-0.2-0.122-0.338-0.122h-1.983c-0.125 0-0.237 0.042-0.33 0.129-0.092 0.086-0.139 0.189-0.139 0.306v2.46c-1.535 0.274-2.783 0.885-3.738 1.831-0.96 0.946-1.437 2.049-1.437 3.306 0 0.373 0.042 0.728 0.125 1.064s0.185 0.64 0.306 0.909c0.122 0.269 0.296 0.533 0.522 0.793 0.223 0.259 0.437 0.481 0.637 0.668 0.2 0.188 0.462 0.381 0.785 0.582s0.598 0.362 0.829 0.484c0.23 0.122 0.534 0.264 0.915 0.423 0.381 0.16 0.682 0.281 0.904 0.362 0.218 0.083 0.519 0.195 0.9 0.342 0.529 0.191 0.918 0.339 1.174 0.445 0.255 0.103 0.577 0.25 0.968 0.435 0.39 0.185 0.676 0.356 0.857 0.511 0.181 0.153 0.345 0.348 0.491 0.573 0.146 0.227 0.218 0.467 0.218 0.723 0 0.719-0.301 1.274-0.902 1.665-0.602 0.39-1.299 0.587-2.091 0.587-0.362 0-0.723-0.038-1.085-0.111-1.27-0.237-2.458-0.804-3.562-1.706l-0.031-0.028c-0.088-0.1-0.205-0.139-0.352-0.122-0.156 0.018-0.269 0.072-0.337 0.163l-1.51 1.849c-0.146 0.181-0.136 0.367 0.028 0.557 0.050 0.056 0.136 0.139 0.259 0.248 0.121 0.109 0.348 0.278 0.682 0.512 0.334 0.232 0.696 0.451 1.085 0.654 0.39 0.206 0.886 0.409 1.489 0.609 0.601 0.2 1.224 0.341 1.869 0.423v2.39c0 0.118 0.047 0.223 0.139 0.306 0.093 0.088 0.203 0.131 0.331 0.131h1.98c0.139 0 0.25-0.042 0.338-0.122 0.088-0.083 0.132-0.186 0.132-0.314v-2.39c1.555-0.237 2.819-0.858 3.791-1.864 0.974-1.006 1.461-2.205 1.461-3.598h-0.004z"></path>
</svg>
