<svg width="32" height="32" viewBox="0 0 32 32" xmlns="http://www.w3.org/2000/svg"><g fill="none" fill-rule="evenodd"><path d="M27.817 26.646H4.183a3.95 3.95 0 0 1-3.937-3.938V8.923a3.95 3.95 0 0 1 3.94-3.938h23.63a3.95 3.95 0 0 1 3.938 3.938v13.785a3.95 3.95 0 0 1-3.937 3.938zm-6.895-7.89c0-.344-.045-.67-.137-.974a3.647 3.647 0 0 0-.332-.794 2.734 2.734 0 0 0-.558-.66 6.788 6.788 0 0 0-.654-.517 6.363 6.363 0 0 0-.795-.44 14.726 14.726 0 0 0-.8-.364c-.197-.08-.482-.188-.854-.326a17 17 0 0 1-1.375-.566 3.614 3.614 0 0 1-.59-.322 4.33 4.33 0 0 1-.416-.342 1.148 1.148 0 0 1-.312-.43c-.06-.153-.09-.32-.09-.5 0-.47.21-.853.633-1.15.422-.298.967-.447 1.634-.447.295 0 .596.04.9.12a4.78 4.78 0 0 1 1.404.6c.193.123.33.214.41.276.082.062.133.103.154.124.092.07.187.093.286.073.105-.007.186-.063.242-.166l.854-1.514c.084-.14.067-.27-.053-.395-.043-.04-.096-.09-.16-.144a5.173 5.173 0 0 0-.41-.3 4.925 4.925 0 0 0-.67-.39 6.844 6.844 0 0 0-.916-.348 5.945 5.945 0 0 0-1.165-.238V6.794a.326.326 0 0 0-.096-.24.339.339 0 0 0-.242-.092H15.39a.328.328 0 0 0-.238.098.317.317 0 0 0-.1.234V8.66c-1.103.21-2 .672-2.688 1.392-.69.72-1.033 1.556-1.033 2.51 0 .284.03.554.09.81s.134.486.222.69c.088.204.213.405.374.602.162.197.315.367.46.508.143.142.33.29.563.44.23.154.43.276.594.37.165.093.385.2.66.32.273.123.49.214.647.276l.65.26c.38.145.66.258.842.337.183.08.415.19.696.332.28.142.487.272.617.39.13.117.247.262.353.435.105.173.158.356.158.55 0 .546-.216.968-.648 1.266a2.59 2.59 0 0 1-1.502.446c-.26 0-.52-.028-.78-.083-.914-.18-1.767-.61-2.56-1.296l-.023-.02a.26.26 0 0 0-.252-.094c-.112.014-.193.055-.242.124l-1.085 1.4c-.106.14-.1.28.02.427.036.042.097.104.185.187s.25.213.49.39c.24.176.5.342.78.498.28.155.638.31 1.07.46.432.153.88.26 1.344.323v1.816c0 .09.033.168.1.233.067.066.146.1.237.1h1.422a.327.327 0 0 0 .337-.333V22.91c1.116-.18 2.024-.652 2.724-1.416.7-.765 1.048-1.676 1.048-2.735z"/><path d="M0 0h32v32H0z"/></g></svg>