<svg viewBox="0 0 32 32" xmlns="http://www.w3.org/2000/svg" xmlns:xlink="http://www.w3.org/1999/xlink">
  <defs>
    <path d="M0 9.01C0 6.795 1.79 5 4.004 5h23.992C30.206 5 32 6.8 32 9.01v13.98c0 2.215-1.79 4.01-4.004 4.01H4.004C1.794 27 0 25.2 0 22.99V9.01zm20.834 9.622c0-.327-.046-.635-.137-.923-.092-.29-.202-.54-.332-.752-.13-.212-.316-.42-.56-.623-.24-.203-.46-.367-.652-.49-.193-.125-.46-.264-.796-.418-.337-.154-.604-.268-.8-.344-.198-.075-.482-.178-.855-.31-.33-.117-.576-.207-.737-.27-.162-.06-.375-.15-.638-.264-.264-.115-.46-.217-.59-.305-.13-.088-.27-.196-.417-.324-.147-.127-.25-.262-.31-.406-.06-.144-.09-.3-.09-.472 0-.445.21-.808.632-1.09.422-.28.966-.42 1.634-.42.295 0 .595.036.9.112.307.075.568.16.786.255.218.094.424.198.617.313.192.115.33.2.41.26.08.06.132.098.153.118.09.066.186.09.284.07.106-.007.186-.06.243-.157l.853-1.434c.085-.13.067-.256-.052-.374-.042-.04-.094-.085-.157-.137-.064-.053-.2-.148-.412-.286-.21-.137-.432-.26-.668-.368-.235-.108-.54-.217-.917-.33-.376-.11-.764-.185-1.164-.224V7.314c0-.092-.03-.167-.094-.226-.063-.06-.144-.088-.243-.088H15.3c-.09 0-.17.03-.237.093-.066.062-.1.136-.1.22v1.768c-1.103.197-2 .636-2.687 1.316-.69.68-1.033 1.473-1.033 2.376 0 .268.03.523.09.765s.133.46.22.653c.088.193.213.383.375.57.16.186.314.346.458.48.144.135.332.274.564.418.232.144.43.26.596.348.165.088.384.19.658.304.274.115.49.202.65.26.157.06.373.14.647.246.38.137.66.244.844.32.183.074.415.18.696.313.28.133.486.256.616.367.13.11.248.25.353.412.105.163.157.336.157.52 0 .517-.216.916-.648 1.197-.433.28-.934.422-1.503.422-.26 0-.52-.027-.78-.08-.913-.17-1.767-.578-2.56-1.226l-.022-.02c-.063-.072-.147-.1-.253-.088-.112.013-.193.052-.242.117L11.074 20.4c-.105.13-.098.264.02.4.036.04.098.1.186.178.087.078.25.2.49.368.24.167.5.324.78.47.28.148.637.294 1.07.438.432.144.88.245 1.343.304v1.718c0 .085.034.16.1.22.067.063.146.094.238.094h1.423c.1 0 .18-.03.243-.088.063-.06.095-.134.095-.226v-1.718c1.118-.17 2.026-.617 2.725-1.34.7-.723 1.05-1.585 1.05-2.586z" id="a"/>
  </defs>
  <use fill="#000" xlink:href="#a" fill-rule="evenodd"/>
</svg>
