<svg xmlns="http://www.w3.org/2000/svg" viewBox="0 0 32 32">
  <path d="M27.8173157,22.6461534 L4.18268437,22.6461534 C2.01740839,22.6451006 0.246153846,20.8732025 0.246153846,18.7076923 L0.246153846,4.92307692 C0.252910807,2.75072966 2.01226812,0.991372346 4.18461538,0.984615385 L27.8153846,0.984615385 C29.9815385,0.984615385 31.7538462,2.75692308 31.7538462,4.92307692 L31.7538462,18.7076923 C31.7538462,20.8732025 29.9825916,22.6451006 27.8173156,22.6461534 L27.8173157,22.6461534 Z M20.922258,14.7574532 C20.922258,14.4115765 20.8765861,14.0864524 20.7852422,13.782081 C20.6938983,13.4777095 20.5832318,13.213114 20.4532425,12.9882942 C20.3232532,12.7634743 20.1370522,12.5438426 19.8946398,12.3293991 C19.6522272,12.1149556 19.4344073,11.9420173 19.2411799,11.8105841 C19.0479525,11.679151 18.782704,11.5321534 18.4454345,11.3695914 C18.1081648,11.2070294 17.8411598,11.0859726 17.6444192,11.0064209 C17.4476785,10.9268693 17.1631073,10.8179182 16.7907055,10.6795675 C16.4604624,10.5550519 16.2145366,10.4599358 16.0529282,10.3942193 C15.8913199,10.3285027 15.6787698,10.235116 15.4152779,10.1140592 C15.1517861,9.99300238 14.9550455,9.88578062 14.8250561,9.79239392 C14.6950668,9.69900722 14.5562945,9.58486793 14.4087391,9.44997604 C14.2611836,9.31508415 14.1575434,9.17154534 14.0978186,9.01935962 C14.0380938,8.8671739 14.0082314,8.70115311 14.0082314,8.52129726 C14.0082314,8.05090502 14.2190249,7.66698194 14.6406118,7.36952802 C15.0621989,7.07207412 15.6067487,6.92334716 16.2742614,6.92334716 C16.5693723,6.92334716 16.8697531,6.96312298 17.1754037,7.0426746 C17.4810542,7.12222623 17.7427894,7.21215415 17.9606094,7.31245839 C18.1784293,7.41276261 18.383953,7.52344314 18.5771804,7.64449996 C18.7704078,7.76555679 18.9074235,7.85721409 18.9882277,7.91947189 C19.0690319,7.98172969 19.1199737,8.02323488 19.1410529,8.04398748 C19.2323968,8.11316282 19.3272539,8.13737418 19.4256242,8.11662158 C19.5310209,8.10970405 19.6118251,8.05436378 19.6680367,7.95060079 L20.5217504,6.4356611 C20.6060678,6.29731044 20.5885017,6.16587732 20.4690519,6.04136172 C20.4268933,5.99985652 20.374195,5.9514338 20.3109569,5.89609353 C20.2477188,5.84075327 20.110703,5.74044905 19.8999095,5.59518085 C19.6891161,5.44991266 19.4660262,5.32020892 19.2306402,5.20606962 C18.9952542,5.09193034 18.6896036,4.97606166 18.3136885,4.85846359 C17.9377734,4.74086554 17.5495621,4.66131391 17.1490544,4.61980871 L17.1490544,2.79358004 C17.1490544,2.69673458 17.1174354,2.61718295 17.0541974,2.55492516 C16.9909594,2.49266736 16.9101552,2.46153846 16.8117849,2.46153846 L15.3889287,2.46153846 C15.297585,2.46153846 15.2185374,2.49439674 15.1517861,2.5601133 C15.0850348,2.62582987 15.0516592,2.70365211 15.0516592,2.79358004 L15.0516592,4.66131391 C13.9485066,4.8688399 13.0526342,5.3323146 12.3640421,6.05173802 C11.67545,6.77116144 11.331154,7.60818292 11.331154,8.56280245 C11.331154,8.84642129 11.3610164,9.11620508 11.4207412,9.3721538 C11.4804661,9.62810251 11.5542438,9.85811047 11.6420744,10.0621777 C11.729905,10.2662449 11.8546245,10.4668534 12.0162329,10.6640031 C12.1778412,10.8611527 12.3306665,11.0306323 12.4747087,11.1724417 C12.6187509,11.3142512 12.8067084,11.4612487 13.0385813,11.6134344 C13.2704542,11.7656202 13.4689514,11.8884064 13.634073,11.9817931 C13.7991945,12.0751798 14.0187711,12.1824015 14.2928026,12.3034584 C14.5668341,12.4245152 14.7828975,12.5161724 14.9409926,12.5784303 C15.0990878,12.6406881 15.315151,12.7271573 15.5891826,12.8378378 C15.9686108,12.983106 16.2496689,13.0955158 16.4323566,13.1750674 C16.6150443,13.2546191 16.846917,13.3652997 17.1279751,13.507109 C17.4090331,13.6489185 17.6145568,13.7786223 17.7445461,13.8962203 C17.8745354,14.0138183 17.9922284,14.1590865 18.0976252,14.3320249 C18.2030219,14.5049632 18.2557202,14.6882778 18.2557202,14.8819687 C18.2557202,15.4284538 18.039657,15.8504234 17.6075303,16.1478773 C17.1754037,16.4453312 16.6747691,16.5940581 16.1056267,16.5940581 C15.845648,16.5940581 15.5856694,16.5663879 15.3256907,16.5110478 C14.4122523,16.3311919 13.5585386,15.898846 12.7645498,15.2140103 L12.7434704,15.1932577 C12.6802324,15.1171648 12.595915,15.0860359 12.4905183,15.099871 C12.378095,15.1137061 12.2972909,15.1552113 12.2481057,15.2243866 L11.1625192,16.625187 C11.0571225,16.7635377 11.0641489,16.9053471 11.1835986,17.0506153 C11.2187308,17.0921205 11.2802122,17.1543782 11.3680429,17.2373887 C11.4558735,17.320399 11.6192384,17.4501028 11.8581377,17.6264999 C12.097037,17.802897 12.3570156,17.9689178 12.6380737,18.1245622 C12.9191317,18.2802068 13.2757239,18.4341218 13.7078507,18.5863076 C14.1399774,18.7384933 14.5879135,18.8457151 15.0516592,18.9079728 L15.0516592,20.7238252 C15.0516592,20.8137531 15.0850348,20.8915754 15.1517861,20.9572919 C15.2185374,21.0230085 15.297585,21.0558668 15.3889287,21.0558668 L16.8117849,21.0558668 C16.9101552,21.0558668 16.9909594,21.0247378 17.0541974,20.9624801 C17.1174354,20.9002223 17.1490544,20.8206706 17.1490544,20.7238252 L17.1490544,18.9079728 C18.2662599,18.728117 19.1744286,18.2559953 19.8735604,17.491608 C20.5726921,16.7272206 20.922258,15.8158357 20.922258,14.7574532 Z">
  </path>
</svg>
