<svg width="32" height="32" viewBox="0 0 32 32" xmlns="http://www.w3.org/2000/svg"><g fill="none" fill-rule="evenodd"><path d="M27.817 26.646H4.183a3.95 3.95 0 0 1-3.937-3.938V8.923a3.95 3.95 0 0 1 3.939-3.938h23.63a3.95 3.95 0 0 1 3.939 3.938v13.785a3.95 3.95 0 0 1-3.937 3.938zm-6.895-7.889c0-.345-.045-.67-.137-.975a3.722 3.722 0 0 0-.332-.794 2.699 2.699 0 0 0-.558-.659 6.703 6.703 0 0 0-.654-.518 6.398 6.398 0 0 0-.796-.441 14.394 14.394 0 0 0-.8-.364c-.197-.08-.482-.188-.854-.326a16.442 16.442 0 0 1-1.375-.566 3.731 3.731 0 0 1-.59-.322 4.625 4.625 0 0 1-.417-.342 1.168 1.168 0 0 1-.311-.43 1.352 1.352 0 0 1-.09-.499c0-.47.211-.854.633-1.151.421-.298.966-.447 1.633-.447.295 0 .596.04.901.12a4.757 4.757 0 0 1 1.402.601c.193.122.33.213.411.275.081.063.132.104.153.125a.34.34 0 0 0 .285.073c.105-.007.186-.063.242-.166l.854-1.515c.084-.139.067-.27-.053-.395a3.743 3.743 0 0 0-.158-.145 5.548 5.548 0 0 0-.411-.3 5.094 5.094 0 0 0-.67-.39 6.82 6.82 0 0 0-.916-.348 5.942 5.942 0 0 0-1.165-.238V6.794a.32.32 0 0 0-.337-.332h-1.423a.327.327 0 0 0-.237.098.317.317 0 0 0-.1.234V8.66c-1.103.208-2 .671-2.688 1.39-.689.72-1.033 1.557-1.033 2.512 0 .283.03.553.09.81.06.255.133.485.221.69.088.203.213.404.374.601.162.197.315.367.459.508.144.142.332.29.564.441.231.153.43.275.595.369.165.093.385.2.659.321.274.122.49.213.648.275l.648.26c.38.145.66.258.843.337.183.08.415.19.696.332.281.142.487.272.617.39.13.117.247.262.353.435.105.173.158.356.158.55 0 .546-.216.968-.648 1.266-.433.297-.933.446-1.502.446-.26 0-.52-.028-.78-.083-.914-.18-1.767-.612-2.561-1.297l-.022-.02a.263.263 0 0 0-.252-.094c-.113.014-.194.055-.243.124l-1.085 1.401c-.106.139-.099.28.02.426.036.041.097.103.185.186a6 6 0 0 0 .49.39c.239.176.499.342.78.498.281.155.638.31 1.07.461.432.152.88.26 1.344.322v1.816c0 .09.033.168.1.233a.327.327 0 0 0 .237.099h1.423c.098 0 .179-.031.242-.094a.32.32 0 0 0 .095-.238v-1.816c1.117-.18 2.025-.652 2.725-1.416.699-.765 1.048-1.676 1.048-2.735z" fill-rule="nonzero" fill="#000"/><path d="M0 0h32v32H0z"/></g></svg>