<svg id="Layer_1" data-name="Layer 1" xmlns="http://www.w3.org/2000/svg" xmlns:xlink="http://www.w3.org/1999/xlink" viewBox="0 0 19 19"><defs><style>.cls-1{fill:none;}.cls-2{clip-path:url(#clip-path);}</style><clipPath id="clip-path"><path class="cls-1" d="M98.48-40.57l6.25-6.13,1.18,1.16a1.43,1.43,0,0,0,2,0l1.19-1.16,6.24,6.13Zm11.43-6.9L116.58-54v11.94a1.72,1.72,0,0,1-.25.89ZM97.53-41.18a1.72,1.72,0,0,1-.25-.89V-54L104-47.47ZM98.43-56h16.91a1.2,1.2,0,0,1,1,.68l-8.42,8.24a1.4,1.4,0,0,1-2,0l-8.43-8.26a1.24,1.24,0,0,1,.94-.66Z"/></clipPath></defs><title>Artboard 1</title><path class="cls-3" d="M17.77,6.94H6.4A1.25,1.25,0,0,0,5.17,8.35v1l1.1.77.23.17c1.19.84,2.4,1.67,3.6,2.51.5.35,1.35,1.06,2,1.06h0c.63,0,1.48-.71,2-1.06l2.47-1.72L19,9.45V8.18A1.24,1.24,0,0,0,17.77,6.94Z"/><path class="cls-3" d="M15.72,12.84c-.45.31-.9.62-1.34.94a4.2,4.2,0,0,1-2.29,1.07h0a4.26,4.26,0,0,1-2.3-1.07l-.72-.51h0L5.17,10.45v6.13A1.23,1.23,0,0,0,6.4,17.81H17.77A1.24,1.24,0,0,0,19,16.58V10.45l-3.29,2.39Z"/><path class="cls-3" d="M13.83,3.32v-.9A1.24,1.24,0,0,0,12.6,1.19H1.23A1.25,1.25,0,0,0,0,2.59v1l1.1.78.23.17.56.39A1.92,1.92,0,0,1,3.82,3.32Z"/><path class="cls-3" d="M0,6.57v4.25a1.24,1.24,0,0,0,1.23,1.24h.6V6L0,4.69Z"/><path class="cls-3" d="M16.42,6.19V5.3a1.24,1.24,0,0,0-1.24-1.23H3.82a1.25,1.25,0,0,0-1.24,1.4v1l1.1.77.23.18.57.39A1.92,1.92,0,0,1,6.4,6.19Z"/><path class="cls-3" d="M2.58,9.44V13.7a1.24,1.24,0,0,0,1.24,1.23h.6v-6L2.58,7.57Z"/></svg>