<?xml version="1.0" encoding="UTF-8" standalone="no"?>
<svg width="32px" height="32px" viewBox="0 0 32 32" version="1.1" xmlns="http://www.w3.org/2000/svg" xmlns:xlink="http://www.w3.org/1999/xlink">
    <!-- Generator: Sketch 40 (33762) - http://www.bohemiancoding.com/sketch -->
    <title>nar-rpr</title>
    <desc>Created with Sketch.</desc>
    <defs></defs>
    <g id="Page-1" stroke="none" stroke-width="1" fill="none" fill-rule="evenodd">
        <g id="nar-rpr" fill="#000000">
            <path d="M31.8914188,15.9854436 C31.8915556,15.9701654 31.8927863,15.9551278 31.8927863,15.9398496 L31.890188,15.9398496 C31.8346667,13.2396992 29.3308718,11.0653835 26.2482051,11.0653835 C26.0589402,11.0653835 25.8721368,11.0739248 25.6876581,11.0899248 C25.6880684,11.0865564 25.6884786,11.0833083 25.6876581,11.0899248 C20.862906,11.0653835 19.2683761,8.60150376 19.2683761,5.40294737 C19.278906,5.40198496 19.2735726,5.40246617 19.2683761,5.40294737 C19.282735,5.25870677 19.2914872,5.11314286 19.2914872,4.96565414 C19.2914872,2.22315789 16.7643077,0 13.646906,0 C10.5293675,0 8.00218803,2.22315789 8.00218803,4.96553383 C8.00218803,7.70790977 10.5293675,9.93106767 13.6467692,9.93106767 C14.0054701,9.93106767 14.2646154,9.91470677 14.6975726,9.94478195 C18.4696068,9.95476692 20.640547,11.7531429 20.5208889,14.3758195 L20.5208889,17.5948271 C20.640547,20.2175038 18.4696068,22.0158797 14.6975726,22.0258647 C14.2644786,22.0559398 14.0054701,22.0395789 13.6467692,22.0395789 C10.5293675,22.0395789 8.00218803,24.2627368 8.00218803,27.0051128 C8.00218803,29.7474887 10.5293675,31.9706466 13.6467692,31.9706466 C16.7641709,31.9706466 19.2913504,29.7474887 19.2913504,27.0051128 C19.2913504,26.8576241 19.2825983,26.7119398 19.2682393,26.5678195 C19.2734359,26.5683008 19.2787692,26.568782 19.2682393,26.5678195 C19.2682393,23.3692632 20.8627692,20.9053835 25.6873846,20.8808421 C25.6883419,20.8874586 25.6877949,20.8842105 25.6873846,20.8808421 C25.8718632,20.8968421 26.0586667,20.9053835 26.2479316,20.9053835 C29.3305983,20.9053835 31.8345299,18.731188 31.8899145,16.0309173 L31.8925128,16.0309173 C31.8927863,16.0157594 31.8915556,16.0007218 31.8914188,15.9854436 L31.8914188,15.9854436 Z" id="Shape"></path>
            <path d="M11.2865641,16.0310376 L11.2891624,16.0310376 C11.2891624,16.0157594 11.2880684,16.0007218 11.2877949,15.9854436 C11.2879316,15.9701654 11.2891624,15.9551278 11.2891624,15.9398496 L11.2865641,15.9398496 C11.2310427,13.2396992 8.72724786,11.0653835 5.6445812,11.0653835 C2.56191453,11.0653835 0.0581196581,13.2396992 0.0025982906,15.9398496 L0,15.9398496 C0,15.9551278 0.00109401709,15.9701654 0.00136752137,15.9854436 C0.00109401709,16.0007218 0,16.0157594 0,16.0310376 L0.0025982906,16.0310376 C0.0581196581,18.731188 2.56191453,20.9055038 5.6445812,20.9055038 C8.72724786,20.9055038 11.2311795,18.731188 11.2865641,16.0310376 L11.2865641,16.0310376 Z" id="Shape"></path>
        </g>
    </g>
</svg>
