<?xml version="1.0" encoding="utf-8"?>
<!-- Generator: Adobe Illustrator 15.1.0, SVG Export Plug-In . SVG Version: 6.00 Build 0)  -->
<!DOCTYPE svg PUBLIC "-//W3C//DTD SVG 1.1//EN" "http://www.w3.org/Graphics/SVG/1.1/DTD/svg11.dtd">
<svg version="1.1" id="Layer_1" xmlns="http://www.w3.org/2000/svg" xmlns:xlink="http://www.w3.org/1999/xlink" x="0px" y="0px"
	 width="64px" height="64px" viewBox="0 0 64 64" enable-background="new 0 0 64 64" xml:space="preserve">
<g id="Layer_16">
	<g>
		<g id="Fill_1_">
			
				<linearGradient id="SVGID_1_" gradientUnits="userSpaceOnUse" x1="-204" y1="874" x2="-144" y2="874" gradientTransform="matrix(1 0 0 1 206 -842)">
				<stop  offset="0" style="stop-color:#33A2DB"/>
				<stop  offset="1" style="stop-color:#21AAE1"/>
			</linearGradient>
			<circle fill="url(#SVGID_1_)" cx="32" cy="32" r="30"/>
		</g>
		<path fill="#FFFFFF" d="M32.001,61.4c8.983,0,17.022-4.036,22.416-10.391c-0.535-0.186-1.071-0.371-1.588-0.591
			c-2.761-1.162-5.822-2.517-8.578-3.646c-0.787-0.213-1.571-0.43-2.356-0.645c-0.938-0.645-1.856-2.792-2.358-3.857
			c-0.5-0.07-1-0.145-1.502-0.215c0.077-1.65,1.1-1.74,1.502-3.002c0.354-1.113,0.034-2.56,0.598-3.59
			c0.392-0.716,1.269-0.721,1.709-1.334c0.4-0.556,0.66-1.526,0.787-2.207c0.228-1.246,0.425-2.951-0.166-4.187
			c-0.344-0.712-0.557-0.778-0.651-1.642c-0.115-1.045,0.31-4.449,0.326-5.187c0.043-1.911-0.005-2.065-0.466-3.927
			c0,0-0.562-1.687-1.44-2.194l-1.756-0.303l-1.084-1.005c-4.368-2.688-9.057-0.803-11.563,0.214
			c-3.614,1.173-5.9,4.713-4.306,12.277c0.272,1.291-0.707,1.868-0.644,2.573c0.142,1.541,0.171,5.247,1.626,6.159
			c0.137,0.085,1.169,0.345,1.162,0.272c0.145,1.502,0.285,3.004,0.43,4.504c0.363,0.998,1.235,1.105,1.488,2.518l-1.116,0.271
			c-0.501,1.065-1.421,3.215-2.358,3.857c-0.786,0.215-1.572,0.432-2.358,0.645c-2.755,1.129-5.816,2.481-8.578,3.646
			c-0.516,0.218-1.053,0.405-1.588,0.591C14.977,57.364,23.016,61.4,32.001,61.4z"/>
		<g id="Stroke_1_">
			<circle fill="none" stroke="#1A89CA" stroke-width="2" stroke-miterlimit="10" cx="32" cy="32" r="30"/>
		</g>
	</g>
</g>
</svg>
