<?xml version="1.0"?>
<!--Icons from directory ""-->
<svg xmlns="http://www.w3.org/2000/svg" width="300" height="2100" viewBox="0 0 300 2100"><svg xmlns:xlink="http://www.w3.org/1999/xlink" id="email-bad" xml:space="preserve" height="300" viewBox="0 0 1024 1024" width="300" version="1.1" y="0" x="0px" enable-background="new 0 0 1024 1024"><path d="m60.801 102.4h897.5c25.75 4.201 41.801 16.701 51.398 35.9l-446.5 437.7c-28.949 28.5-76 28.5-105 0l-447.15-438.4c9.501-18.5 25.352-30.6 49.751-35.2zm-47.75 787.1c-7.649-13.6-13.051-29.4-13.051-47.2v-633.6l353.8 346.85-340.75 333.95zm657.15-333.95l353.8-346.85v633.6c0 17.801-5.398 33.6-13.051 47.201l-340.7-333.95zm-606.3 366.05l331.6-325.15 62.699 61.551c29 28.398 76.051 28.398 105 0l62.8-61.55 331.5 325.15h-893.6z" fill="#bbb" clip-rule="evenodd" display="none" fill-rule="evenodd"/><g display="none" fill="#8DB23E">	<polygon id="email-bad-arrow-21-icon" points="666.95 459 666.95 355.5 552.95 458.7 552.95 235 467.4 235 467.4 458.7 353.45 355.5 353.45 459 510.2 600.8" display="inline"/>	<path d="m13.1 991.9c-7.702-13.55-13.1-29.3-13.1-47.25v-633.55l353.85 346.8-340.75 334zm50.849 32.1l331.65-325.1 62.699 61.5c29 28.398 76.1 28.398 105.05 0l62.799-61.5 331.6 325.1h-893.8zm960.05-79.35c0 18.648-5.65 34.949-13.9 48.75l-342.25-335.5 355.35-347.6 0.8 634.35z" clip-rule="evenodd" display="inline" fill-rule="evenodd"/>	<path d="m576.65 26.9c-18.1-17.351-41.65-26.15-65.45-26.9v51.4c10.801 0.75 21.35 4.549 29.551 12.35l444.6 283.25 28.6-19.801 8.75-16.949-446.15-283.35z" display="inline"/>	<path d="m446.05 26.9c18.1-17.351 41.65-26.15 65.45-26.9v51.4c-10.801 0.75-21.352 4.549-29.551 12.35l-444.6 283.25-28.6-19.801-8.75-16.95 446.05-283.35z" display="inline"/>	<path d="m576.65 55.699c-18.1-17.35-41.648-26.15-65.449-26.9v51.4c10.801 0.75 21.35 4.551 29.551 12.35l444.6 283.25 28.6-19.799 8.75-16.951-446.15-283.35z" display="inline"/>	<path d="m446.05 55.699c18.1-17.35 41.65-26.15 65.451-26.9v51.4c-10.801 0.75-21.352 4.551-29.551 12.35l-444.6 283.25-28.6-19.8-8.75-16.95 446.05-283.35z" display="inline"/></g>	<polygon id="email-bad-X_4_" points="1024 89.086 938.89 -0.125 789.07 157.02 639.15 -0.125 554.04 89.162 703.96 246.23 554.04 403.43 639.05 492.54 789.07 335.44 938.94 492.54 1024 403.43 874.08 246.23" fill="#F05B5A"/>		<path d="m908.86 318.91l-70.059 68.658 37.504 39.281 45.406-44.557v92.188l17.25 18.051 85.062-89.109-149.89-157.19 149.92-157.14-85.08-89.215-149.82 157.14-149.92-157.14-85.11 89.282 149.92 157.07-38.504 40.406h197.12c23.2 3.75 37.65 15 46.25 32.27z" fill="none"/><g fill="#F05B5A">		<path d="m583.52 545.54l-85.012-89.111c-28.301-29.654-28.301-76.334 0-106.01l60.809-63.781h-504.61c-21.902 4.15-36.203 15.002-44.703 31.678l402.45 394.6c26.102 25.68 68.457 25.68 94.512 0l148.31-145.35c-5.301 1.125-10.699 1.775-16.203 1.775-21 0.01-41.06-8.6-55.56-23.8z"/>		<path d="m0 382.3v570.3c0 16.078 4.852 30.305 11.805 42.506l306.64-300.6-318.44-312.21z"/>		<path d="m506.96 786.72c-26.055 25.578-68.41 25.578-94.512 0l-56.406-55.383-298.48 292.66h804.35l-298.44-292.66-56.51 55.38z"/>		<path d="m821.45 480.64l-218.18 213.87 306.74 300.59c6.902-12.201 11.703-26.428 11.703-42.506v-385.37c-14.504-3.352-27.902-10.727-38.305-21.652l-61.95-64.93z"/>	</g><g display="none" fill="#F05B5A">	<polygon id="email-bad-X_5_" points="1024 89.195 938.9 0 789.1 157.12 639.2 0 554.1 89.271 704 246.31 554.1 403.48 639.1 492.58 789.1 335.51 938.95 492.58 1024 403.48 874.1 246.31" display="inline"/>	<path d="m11.657 418.65c172.3 498.2 581.35 598.9 644.05 603.57 150.25 16.225 247-80.25 265.9-226.07 0 0-152.1-99.123-227.8-115.42l-120.11 122.89s-64.45 2.9-205.65-141.7c-141.24-144.75-138.55-210.78-138.55-210.78l103.25-105.62c-17.299-107.25-77.748-276.42-196.25-237.32-116.44 37.5-159.54 206-124.84 310.47" display="inline"/></g><g id="email-bad-Phone_--_Yes_5_" fill="#8DB23E" display="none">	<path d="m9.407 418.65c172.3 498.2 581.35 598.9 644.05 603.57 150.25 16.225 247-80.25 265.9-226.07 0 0-152.1-99.124-227.8-115.42l-120.11 122.89s-64.45 2.9-205.65-141.7c-141.24-144.75-138.54-210.78-138.54-210.78l103.25-105.62c-17.299-107.25-77.748-276.42-196.25-237.32-116.45 37.5-159.55 206-124.85 310.47" display="inline"/>	<g display="inline">		<path d="m664.05 361.45c-28.799-28.6-66.399-42.85-104-42.699l0.5 146.92 146.95-0.451c-0.15-37.64-14.6-75.17-43.45-103.77"/>		<path d="m888.75 135.33c-91.2-90.628-210.55-135.68-329.7-135.33l0.299 92.675c95.45-0.301 191.05 35.799 264.1 108.42 72.998 72.601 109.8 167.92 110.1 263.37l92.7-0.273c-0.4-119.2-46.25-238.25-137.45-328.87"/>		<path d="m559.55 160.53l0.299 90.373c55-0.174 110 20.651 152.1 62.45 42 41.775 63.1 96.675 63.301 151.65l90.45-0.275c-0.25-78.098-30.301-156.1-90.052-215.52-59.8-59.45-138-88.95-216.1-88.67"/>	</g></g><path d="m62.856 367.44c172.3 498.2 581.35 598.9 644.05 603.57 150.25 16.225 247-80.25 265.9-226.07 0 0-152.1-99.124-227.8-115.42l-120.11 122.87s-64.449 2.9-205.65-141.7c-141.25-144.75-138.55-210.78-138.55-210.78l103.25-105.62c-17.3-107.25-77.75-276.42-196.24-237.33-116.45 37.504-159.55 206-124.85 310.48" display="none" fill="#bbb"/></svg><svg xmlns:xlink="http://www.w3.org/1999/xlink" id="email-good" xml:space="preserve" height="300" viewBox="0 0 1024 1024" width="300" version="1.1" y="300" x="0px" enable-background="new 0 0 1024 1024"><path d="m60.801 102.4h897.5c25.75 4.201 41.801 16.701 51.398 35.9l-446.5 437.7c-28.949 28.5-76 28.5-105 0l-447.15-438.4c9.501-18.5 25.352-30.6 49.751-35.2zm-47.75 787.1c-7.649-13.6-13.051-29.4-13.051-47.2v-633.6l353.8 346.85-340.75 333.95zm657.15-333.95l353.8-346.85v633.6c0 17.801-5.398 33.6-13.051 47.201l-340.7-333.95zm-606.3 366.05l331.6-325.15 62.699 61.551c29 28.398 76.051 28.398 105 0l62.8-61.55 331.5 325.15h-893.6z" fill="#bbb" clip-rule="evenodd" display="none" fill-rule="evenodd"/><g fill="#8DB23E">	<polygon id="email-good-arrow-21-icon" points="666.95 459 666.95 355.5 552.95 458.7 552.95 235 467.4 235 467.4 458.7 353.45 355.5 353.45 459 510.2 600.8"/>	<path clip-rule="evenodd" d="m13.1 991.9c-7.702-13.55-13.1-29.3-13.1-47.25v-633.55l353.85 346.8-340.75 334zm50.849 32.1l331.65-325.1 62.699 61.5c29 28.398 76.1 28.398 105.05 0l62.799-61.5 331.6 325.1h-893.8zm960.05-79.35c0 18.648-5.65 34.949-13.9 48.75l-342.25-335.5 355.35-347.6 0.8 634.35z" fill-rule="evenodd"/>	<path d="m576.65 26.9c-18.1-17.351-41.65-26.15-65.45-26.9v51.4c10.801 0.75 21.35 4.549 29.551 12.35l444.6 283.25 28.6-19.801 8.75-16.949-446.15-283.35z"/>	<path d="m446.05 26.9c18.1-17.351 41.65-26.15 65.45-26.9v51.4c-10.801 0.75-21.352 4.549-29.551 12.35l-444.6 283.25-28.6-19.801-8.75-16.95 446.05-283.35z"/>	<path d="m576.65 55.699c-18.1-17.35-41.648-26.15-65.449-26.9v51.4c10.801 0.75 21.35 4.551 29.551 12.35l444.6 283.25 28.6-19.799 8.75-16.951-446.15-283.35z"/>	<path d="m446.05 55.699c18.1-17.35 41.65-26.15 65.451-26.9v51.4c-10.801 0.75-21.352 4.551-29.551 12.35l-444.6 283.25-28.6-19.8-8.75-16.95 446.05-283.35z"/></g><g display="none">	<polygon id="email-good-X_4_" fill="#F05B5A" points="1024 89.086 938.89 -0.125 789.07 157.02 639.15 -0.125 554.04 89.162 703.96 246.23 554.04 403.43 639.05 492.54 789.07 335.44 938.94 492.54 1024 403.43 874.08 246.23" display="inline"/>	<g display="inline">		<path d="m908.86 318.91l-70.059 68.658 37.504 39.281 45.406-44.557v92.188l17.25 18.051 85.062-89.109-149.89-157.19 149.92-157.14-85.08-89.215-149.82 157.14-149.92-157.14-85.11 89.282 149.92 157.07-38.504 40.406h197.12c23.2 3.75 37.65 15 46.25 32.27z" fill="none"/><g fill="#F05B5A">		<path d="m583.52 545.54l-85.012-89.111c-28.301-29.654-28.301-76.334 0-106.01l60.809-63.781h-504.61c-21.902 4.15-36.203 15.002-44.703 31.678l402.45 394.6c26.102 25.68 68.457 25.68 94.512 0l148.31-145.35c-5.301 1.125-10.699 1.775-16.203 1.775-21 0.01-41.06-8.6-55.56-23.8z"/>		<path d="m0 382.3v570.3c0 16.078 4.852 30.305 11.805 42.506l306.64-300.6-318.44-312.21z"/>		<path d="m506.96 786.72c-26.055 25.578-68.41 25.578-94.512 0l-56.406-55.383-298.48 292.66h804.35l-298.44-292.66-56.51 55.38z"/>		<path d="m821.45 480.64l-218.18 213.87 306.74 300.59c6.902-12.201 11.703-26.428 11.703-42.506v-385.37c-14.504-3.352-27.902-10.727-38.305-21.652l-61.95-64.93z"/>	</g></g></g><g display="none" fill="#F05B5A">	<polygon id="email-good-X_5_" points="1024 89.195 938.9 0 789.1 157.12 639.2 0 554.1 89.271 704 246.31 554.1 403.48 639.1 492.58 789.1 335.51 938.95 492.58 1024 403.48 874.1 246.31" display="inline"/>	<path d="m11.657 418.65c172.3 498.2 581.35 598.9 644.05 603.57 150.25 16.225 247-80.25 265.9-226.07 0 0-152.1-99.123-227.8-115.42l-120.11 122.89s-64.45 2.9-205.65-141.7c-141.24-144.75-138.55-210.78-138.55-210.78l103.25-105.62c-17.299-107.25-77.748-276.42-196.25-237.32-116.44 37.5-159.54 206-124.84 310.47" display="inline"/></g><g id="email-good-Phone_--_Yes_5_" fill="#8DB23E" display="none">	<path d="m9.407 418.65c172.3 498.2 581.35 598.9 644.05 603.57 150.25 16.225 247-80.25 265.9-226.07 0 0-152.1-99.124-227.8-115.42l-120.11 122.89s-64.45 2.9-205.65-141.7c-141.24-144.75-138.54-210.78-138.54-210.78l103.25-105.62c-17.299-107.25-77.748-276.42-196.25-237.32-116.45 37.5-159.55 206-124.85 310.47" display="inline"/>	<g display="inline">		<path d="m664.05 361.45c-28.799-28.6-66.399-42.85-104-42.699l0.5 146.92 146.95-0.451c-0.15-37.64-14.6-75.17-43.45-103.77"/>		<path d="m888.75 135.33c-91.2-90.628-210.55-135.68-329.7-135.33l0.299 92.675c95.45-0.301 191.05 35.799 264.1 108.42 72.998 72.601 109.8 167.92 110.1 263.37l92.7-0.273c-0.4-119.2-46.25-238.25-137.45-328.87"/>		<path d="m559.55 160.53l0.299 90.373c55-0.174 110 20.651 152.1 62.45 42 41.775 63.1 96.675 63.301 151.65l90.45-0.275c-0.25-78.098-30.301-156.1-90.052-215.52-59.8-59.45-138-88.95-216.1-88.67"/>	</g></g><path d="m62.856 367.44c172.3 498.2 581.35 598.9 644.05 603.57 150.25 16.225 247-80.25 265.9-226.07 0 0-152.1-99.124-227.8-115.42l-120.11 122.87s-64.449 2.9-205.65-141.7c-141.25-144.75-138.55-210.78-138.55-210.78l103.25-105.62c-17.3-107.25-77.75-276.42-196.24-237.33-116.45 37.504-159.55 206-124.85 310.48" display="none" fill="#bbb"/></svg><svg xmlns:xlink="http://www.w3.org/1999/xlink" id="email-neutral" xml:space="preserve" height="300" viewBox="0 0 1024 1024" width="300" version="1.1" y="600" x="0px" enable-background="new 0 0 1024 1024"><path fill="#bbb" clip-rule="evenodd" d="m60.801 102.4h897.5c25.75 4.201 41.801 16.701 51.398 35.9l-446.5 437.7c-28.949 28.5-76 28.5-105 0l-447.15-438.4c9.501-18.5 25.352-30.6 49.751-35.2zm-47.75 787.1c-7.649-13.6-13.051-29.4-13.051-47.2v-633.6l353.8 346.85-340.75 333.95zm657.15-333.95l353.8-346.85v633.6c0 17.801-5.398 33.6-13.051 47.201l-340.7-333.95zm-606.3 366.05l331.6-325.15 62.699 61.551c29 28.398 76.051 28.398 105 0l62.8-61.55 331.5 325.15h-893.6z" fill-rule="evenodd"/><g display="none" fill="#8DB23E">	<polygon id="email-neutral-arrow-21-icon" points="666.95 459 666.95 355.5 552.95 458.7 552.95 235 467.4 235 467.4 458.7 353.45 355.5 353.45 459 510.2 600.8" display="inline"/>	<path d="m13.1 991.9c-7.702-13.55-13.1-29.3-13.1-47.25v-633.55l353.85 346.8-340.75 334zm50.849 32.1l331.65-325.1 62.699 61.5c29 28.398 76.1 28.398 105.05 0l62.799-61.5 331.6 325.1h-893.8zm960.05-79.35c0 18.648-5.65 34.949-13.9 48.75l-342.25-335.5 355.35-347.6 0.8 634.35z" clip-rule="evenodd" display="inline" fill-rule="evenodd"/>	<path d="m576.65 26.9c-18.1-17.351-41.65-26.15-65.45-26.9v51.4c10.801 0.75 21.35 4.549 29.551 12.35l444.6 283.25 28.6-19.801 8.75-16.949-446.15-283.35z" display="inline"/>	<path d="m446.05 26.9c18.1-17.351 41.65-26.15 65.45-26.9v51.4c-10.801 0.75-21.352 4.549-29.551 12.35l-444.6 283.25-28.6-19.801-8.75-16.95 446.05-283.35z" display="inline"/>	<path d="m576.65 55.699c-18.1-17.35-41.648-26.15-65.449-26.9v51.4c10.801 0.75 21.35 4.551 29.551 12.35l444.6 283.25 28.6-19.799 8.75-16.951-446.15-283.35z" display="inline"/>	<path d="m446.05 55.699c18.1-17.35 41.65-26.15 65.451-26.9v51.4c-10.801 0.75-21.352 4.551-29.551 12.35l-444.6 283.25-28.6-19.8-8.75-16.95 446.05-283.35z" display="inline"/></g><g display="none">	<polygon id="email-neutral-X_4_" fill="#F05B5A" points="1024 89.086 938.89 -0.125 789.07 157.02 639.15 -0.125 554.04 89.162 703.96 246.23 554.04 403.43 639.05 492.54 789.07 335.44 938.94 492.54 1024 403.43 874.08 246.23" display="inline"/>	<g display="inline">		<path d="m908.86 318.91l-70.059 68.658 37.504 39.281 45.406-44.557v92.188l17.25 18.051 85.062-89.109-149.89-157.19 149.92-157.14-85.08-89.215-149.82 157.14-149.92-157.14-85.11 89.282 149.92 157.07-38.504 40.406h197.12c23.2 3.75 37.65 15 46.25 32.27z" fill="none"/><g fill="#F05B5A">		<path d="m583.52 545.54l-85.012-89.111c-28.301-29.654-28.301-76.334 0-106.01l60.809-63.781h-504.61c-21.902 4.15-36.203 15.002-44.703 31.678l402.45 394.6c26.102 25.68 68.457 25.68 94.512 0l148.31-145.35c-5.301 1.125-10.699 1.775-16.203 1.775-21 0.01-41.06-8.6-55.56-23.8z"/>		<path d="m0 382.3v570.3c0 16.078 4.852 30.305 11.805 42.506l306.64-300.6-318.44-312.21z"/>		<path d="m506.96 786.72c-26.055 25.578-68.41 25.578-94.512 0l-56.406-55.383-298.48 292.66h804.35l-298.44-292.66-56.51 55.38z"/>		<path d="m821.45 480.64l-218.18 213.87 306.74 300.59c6.902-12.201 11.703-26.428 11.703-42.506v-385.37c-14.504-3.352-27.902-10.727-38.305-21.652l-61.95-64.93z"/>	</g></g></g><g display="none" fill="#F05B5A">	<polygon id="email-neutral-X_5_" points="1024 89.195 938.9 0 789.1 157.12 639.2 0 554.1 89.271 704 246.31 554.1 403.48 639.1 492.58 789.1 335.51 938.95 492.58 1024 403.48 874.1 246.31" display="inline"/>	<path d="m11.657 418.65c172.3 498.2 581.35 598.9 644.05 603.57 150.25 16.225 247-80.25 265.9-226.07 0 0-152.1-99.123-227.8-115.42l-120.11 122.89s-64.45 2.9-205.65-141.7c-141.24-144.75-138.55-210.78-138.55-210.78l103.25-105.62c-17.299-107.25-77.748-276.42-196.25-237.32-116.44 37.5-159.54 206-124.84 310.47" display="inline"/></g><g id="email-neutral-Phone_--_Yes_5_" fill="#8DB23E" display="none">	<path d="m9.407 418.65c172.3 498.2 581.35 598.9 644.05 603.57 150.25 16.225 247-80.25 265.9-226.07 0 0-152.1-99.124-227.8-115.42l-120.11 122.89s-64.45 2.9-205.65-141.7c-141.24-144.75-138.54-210.78-138.54-210.78l103.25-105.62c-17.299-107.25-77.748-276.42-196.25-237.32-116.45 37.5-159.55 206-124.85 310.47" display="inline"/>	<g display="inline">		<path d="m664.05 361.45c-28.799-28.6-66.399-42.85-104-42.699l0.5 146.92 146.95-0.451c-0.15-37.64-14.6-75.17-43.45-103.77"/>		<path d="m888.75 135.33c-91.2-90.628-210.55-135.68-329.7-135.33l0.299 92.675c95.45-0.301 191.05 35.799 264.1 108.42 72.998 72.601 109.8 167.92 110.1 263.37l92.7-0.273c-0.4-119.2-46.25-238.25-137.45-328.87"/>		<path d="m559.55 160.53l0.299 90.373c55-0.174 110 20.651 152.1 62.45 42 41.775 63.1 96.675 63.301 151.65l90.45-0.275c-0.25-78.098-30.301-156.1-90.052-215.52-59.8-59.45-138-88.95-216.1-88.67"/>	</g></g><path d="m62.856 367.44c172.3 498.2 581.35 598.9 644.05 603.57 150.25 16.225 247-80.25 265.9-226.07 0 0-152.1-99.124-227.8-115.42l-120.11 122.87s-64.449 2.9-205.65-141.7c-141.25-144.75-138.55-210.78-138.55-210.78l103.25-105.62c-17.3-107.25-77.75-276.42-196.24-237.33-116.45 37.504-159.55 206-124.85 310.48" display="none" fill="#bbb"/></svg><svg xmlns:xlink="http://www.w3.org/1999/xlink" id="phone-bad" xml:space="preserve" height="300" viewBox="0 0 1024 1024" width="300" version="1.1" y="900" x="0px" enable-background="new 0 0 1024 1024"><path d="m60.801 102.4h897.5c25.75 4.201 41.801 16.701 51.398 35.9l-446.5 437.7c-28.949 28.5-76 28.5-105 0l-447.15-438.4c9.501-18.5 25.352-30.6 49.751-35.2zm-47.75 787.1c-7.649-13.6-13.051-29.4-13.051-47.2v-633.6l353.8 346.85-340.75 333.95zm657.15-333.95l353.8-346.85v633.6c0 17.801-5.398 33.6-13.051 47.201l-340.7-333.95zm-606.3 366.05l331.6-325.15 62.699 61.551c29 28.398 76.051 28.398 105 0l62.8-61.55 331.5 325.15h-893.6z" fill="#bbb" clip-rule="evenodd" display="none" fill-rule="evenodd"/><g display="none" fill="#8DB23E">	<polygon id="phone-bad-arrow-21-icon" points="666.95 459 666.95 355.5 552.95 458.7 552.95 235 467.4 235 467.4 458.7 353.45 355.5 353.45 459 510.2 600.8" display="inline"/>	<path d="m13.1 991.9c-7.702-13.55-13.1-29.3-13.1-47.25v-633.55l353.85 346.8-340.75 334zm50.849 32.1l331.65-325.1 62.699 61.5c29 28.398 76.1 28.398 105.05 0l62.799-61.5 331.6 325.1h-893.8zm960.05-79.35c0 18.648-5.65 34.949-13.9 48.75l-342.25-335.5 355.35-347.6 0.8 634.35z" clip-rule="evenodd" display="inline" fill-rule="evenodd"/>	<path d="m576.65 26.9c-18.1-17.351-41.65-26.15-65.45-26.9v51.4c10.801 0.75 21.35 4.549 29.551 12.35l444.6 283.25 28.6-19.801 8.75-16.949-446.15-283.35z" display="inline"/>	<path d="m446.05 26.9c18.1-17.351 41.65-26.15 65.45-26.9v51.4c-10.801 0.75-21.352 4.549-29.551 12.35l-444.6 283.25-28.6-19.801-8.75-16.95 446.05-283.35z" display="inline"/>	<path d="m576.65 55.699c-18.1-17.35-41.648-26.15-65.449-26.9v51.4c10.801 0.75 21.35 4.551 29.551 12.35l444.6 283.25 28.6-19.799 8.75-16.951-446.15-283.35z" display="inline"/>	<path d="m446.05 55.699c18.1-17.35 41.65-26.15 65.451-26.9v51.4c-10.801 0.75-21.352 4.551-29.551 12.35l-444.6 283.25-28.6-19.8-8.75-16.95 446.05-283.35z" display="inline"/></g><g display="none">	<polygon id="phone-bad-X_4_" fill="#F05B5A" points="1024 89.086 938.89 -0.125 789.07 157.02 639.15 -0.125 554.04 89.162 703.96 246.23 554.04 403.43 639.05 492.54 789.07 335.44 938.94 492.54 1024 403.43 874.08 246.23" display="inline"/>	<g display="inline">		<path d="m908.86 318.91l-70.059 68.658 37.504 39.281 45.406-44.557v92.188l17.25 18.051 85.062-89.109-149.89-157.19 149.92-157.14-85.08-89.215-149.82 157.14-149.92-157.14-85.11 89.282 149.92 157.07-38.504 40.406h197.12c23.2 3.75 37.65 15 46.25 32.27z" fill="none"/><g fill="#F05B5A">		<path d="m583.52 545.54l-85.012-89.111c-28.301-29.654-28.301-76.334 0-106.01l60.809-63.781h-504.61c-21.902 4.15-36.203 15.002-44.703 31.678l402.45 394.6c26.102 25.68 68.457 25.68 94.512 0l148.31-145.35c-5.301 1.125-10.699 1.775-16.203 1.775-21 0.01-41.06-8.6-55.56-23.8z"/>		<path d="m0 382.3v570.3c0 16.078 4.852 30.305 11.805 42.506l306.64-300.6-318.44-312.21z"/>		<path d="m506.96 786.72c-26.055 25.578-68.41 25.578-94.512 0l-56.406-55.383-298.48 292.66h804.35l-298.44-292.66-56.51 55.38z"/>		<path d="m821.45 480.64l-218.18 213.87 306.74 300.59c6.902-12.201 11.703-26.428 11.703-42.506v-385.37c-14.504-3.352-27.902-10.727-38.305-21.652l-61.95-64.93z"/>	</g></g></g><g fill="#F05B5A">	<polygon id="phone-bad-X_5_" points="1024 89.195 938.9 0 789.1 157.12 639.2 0 554.1 89.271 704 246.31 554.1 403.48 639.1 492.58 789.1 335.51 938.95 492.58 1024 403.48 874.1 246.31"/>	<path d="m11.657 418.65c172.3 498.2 581.35 598.9 644.05 603.57 150.25 16.225 247-80.25 265.9-226.07 0 0-152.1-99.123-227.8-115.42l-120.11 122.89s-64.45 2.9-205.65-141.7c-141.24-144.75-138.55-210.78-138.55-210.78l103.25-105.62c-17.299-107.25-77.748-276.42-196.25-237.32-116.44 37.5-159.54 206-124.84 310.47"/></g><g id="phone-bad-Phone_--_Yes_5_" fill="#8DB23E" display="none">	<path d="m9.407 418.65c172.3 498.2 581.35 598.9 644.05 603.57 150.25 16.225 247-80.25 265.9-226.07 0 0-152.1-99.124-227.8-115.42l-120.11 122.89s-64.45 2.9-205.65-141.7c-141.24-144.75-138.54-210.78-138.54-210.78l103.25-105.62c-17.299-107.25-77.748-276.42-196.25-237.32-116.45 37.5-159.55 206-124.85 310.47" display="inline"/>	<g display="inline">		<path d="m664.05 361.45c-28.799-28.6-66.399-42.85-104-42.699l0.5 146.92 146.95-0.451c-0.15-37.64-14.6-75.17-43.45-103.77"/>		<path d="m888.75 135.33c-91.2-90.628-210.55-135.68-329.7-135.33l0.299 92.675c95.45-0.301 191.05 35.799 264.1 108.42 72.998 72.601 109.8 167.92 110.1 263.37l92.7-0.273c-0.4-119.2-46.25-238.25-137.45-328.87"/>		<path d="m559.55 160.53l0.299 90.373c55-0.174 110 20.651 152.1 62.45 42 41.775 63.1 96.675 63.301 151.65l90.45-0.275c-0.25-78.098-30.301-156.1-90.052-215.52-59.8-59.45-138-88.95-216.1-88.67"/>	</g></g><path d="m62.856 367.44c172.3 498.2 581.35 598.9 644.05 603.57 150.25 16.225 247-80.25 265.9-226.07 0 0-152.1-99.124-227.8-115.42l-120.11 122.87s-64.449 2.9-205.65-141.7c-141.25-144.75-138.55-210.78-138.55-210.78l103.25-105.62c-17.3-107.25-77.75-276.42-196.24-237.33-116.45 37.504-159.55 206-124.85 310.48" display="none" fill="#bbb"/></svg><svg xmlns:xlink="http://www.w3.org/1999/xlink" id="phone-good" xml:space="preserve" height="300" viewBox="0 0 1024 1024" width="300" version="1.1" y="1200" x="0px" enable-background="new 0 0 1024 1024"><path d="m60.801 102.4h897.5c25.75 4.201 41.801 16.701 51.398 35.9l-446.5 437.7c-28.949 28.5-76 28.5-105 0l-447.15-438.4c9.501-18.5 25.352-30.6 49.751-35.2zm-47.75 787.1c-7.649-13.6-13.051-29.4-13.051-47.2v-633.6l353.8 346.85-340.75 333.95zm657.15-333.95l353.8-346.85v633.6c0 17.801-5.398 33.6-13.051 47.201l-340.7-333.95zm-606.3 366.05l331.6-325.15 62.699 61.551c29 28.398 76.051 28.398 105 0l62.8-61.55 331.5 325.15h-893.6z" fill="#bbb" clip-rule="evenodd" display="none" fill-rule="evenodd"/><g display="none" fill="#8DB23E">	<polygon id="phone-good-arrow-21-icon" points="666.95 459 666.95 355.5 552.95 458.7 552.95 235 467.4 235 467.4 458.7 353.45 355.5 353.45 459 510.2 600.8" display="inline"/>	<path d="m13.1 991.9c-7.702-13.55-13.1-29.3-13.1-47.25v-633.55l353.85 346.8-340.75 334zm50.849 32.1l331.65-325.1 62.699 61.5c29 28.398 76.1 28.398 105.05 0l62.799-61.5 331.6 325.1h-893.8zm960.05-79.35c0 18.648-5.65 34.949-13.9 48.75l-342.25-335.5 355.35-347.6 0.8 634.35z" clip-rule="evenodd" display="inline" fill-rule="evenodd"/>	<path d="m576.65 26.9c-18.1-17.351-41.65-26.15-65.45-26.9v51.4c10.801 0.75 21.35 4.549 29.551 12.35l444.6 283.25 28.6-19.801 8.75-16.949-446.15-283.35z" display="inline"/>	<path d="m446.05 26.9c18.1-17.351 41.65-26.15 65.45-26.9v51.4c-10.801 0.75-21.352 4.549-29.551 12.35l-444.6 283.25-28.6-19.801-8.75-16.95 446.05-283.35z" display="inline"/>	<path d="m576.65 55.699c-18.1-17.35-41.648-26.15-65.449-26.9v51.4c10.801 0.75 21.35 4.551 29.551 12.35l444.6 283.25 28.6-19.799 8.75-16.951-446.15-283.35z" display="inline"/>	<path d="m446.05 55.699c18.1-17.35 41.65-26.15 65.451-26.9v51.4c-10.801 0.75-21.352 4.551-29.551 12.35l-444.6 283.25-28.6-19.8-8.75-16.95 446.05-283.35z" display="inline"/></g><g display="none">	<polygon id="phone-good-X_4_" fill="#F05B5A" points="1024 89.086 938.89 -0.125 789.07 157.02 639.15 -0.125 554.04 89.162 703.96 246.23 554.04 403.43 639.05 492.54 789.07 335.44 938.94 492.54 1024 403.43 874.08 246.23" display="inline"/>	<g display="inline">		<path d="m908.86 318.91l-70.059 68.658 37.504 39.281 45.406-44.557v92.188l17.25 18.051 85.062-89.109-149.89-157.19 149.92-157.14-85.08-89.215-149.82 157.14-149.92-157.14-85.11 89.282 149.92 157.07-38.504 40.406h197.12c23.2 3.75 37.65 15 46.25 32.27z" fill="none"/><g fill="#F05B5A">		<path d="m583.52 545.54l-85.012-89.111c-28.301-29.654-28.301-76.334 0-106.01l60.809-63.781h-504.61c-21.902 4.15-36.203 15.002-44.703 31.678l402.45 394.6c26.102 25.68 68.457 25.68 94.512 0l148.31-145.35c-5.301 1.125-10.699 1.775-16.203 1.775-21 0.01-41.06-8.6-55.56-23.8z"/>		<path d="m0 382.3v570.3c0 16.078 4.852 30.305 11.805 42.506l306.64-300.6-318.44-312.21z"/>		<path d="m506.96 786.72c-26.055 25.578-68.41 25.578-94.512 0l-56.406-55.383-298.48 292.66h804.35l-298.44-292.66-56.51 55.38z"/>		<path d="m821.45 480.64l-218.18 213.87 306.74 300.59c6.902-12.201 11.703-26.428 11.703-42.506v-385.37c-14.504-3.352-27.902-10.727-38.305-21.652l-61.95-64.93z"/>	</g></g></g><g display="none" fill="#F05B5A">	<polygon id="phone-good-X_5_" points="1024 89.195 938.9 0 789.1 157.12 639.2 0 554.1 89.271 704 246.31 554.1 403.48 639.1 492.58 789.1 335.51 938.95 492.58 1024 403.48 874.1 246.31" display="inline"/>	<path d="m11.657 418.65c172.3 498.2 581.35 598.9 644.05 603.57 150.25 16.225 247-80.25 265.9-226.07 0 0-152.1-99.123-227.8-115.42l-120.11 122.89s-64.45 2.9-205.65-141.7c-141.24-144.75-138.55-210.77-138.55-210.77l103.25-105.62c-17.299-107.25-77.748-276.42-196.25-237.32-116.44 37.49-159.54 205.99-124.84 310.46" display="inline"/></g><g fill="#8DB23E">	<path d="m11.657 418.65c172.3 498.2 581.35 598.9 644.05 603.57 150.25 16.225 247-80.25 265.9-226.07 0 0-152.1-99.124-227.8-115.42l-120.11 122.89s-64.45 2.9-205.65-141.7c-141.24-144.75-138.54-210.78-138.54-210.78l103.25-105.62c-17.299-107.25-77.748-276.42-196.25-237.32-116.45 37.5-159.55 206-124.85 310.47"/>		<path d="m661.8 361.45c-28.799-28.6-66.399-42.85-104-42.699l0.5 146.92 146.95-0.451c-0.15-37.64-14.6-75.17-43.45-103.77"/>		<path d="m886.5 135.33c-91.2-90.628-210.55-135.68-329.7-135.33l0.299 92.675c95.45-0.301 191.05 35.799 264.1 108.42 73 72.6 109.8 167.93 110.1 263.38l92.7-0.273c-0.4-119.21-46.3-238.26-137.5-328.88"/>		<path d="m557.3 160.53l0.299 90.373c55-0.174 110 20.651 152.1 62.45 42 41.775 63.1 96.675 63.301 151.65l90.45-0.275c-0.25-78.098-30.301-156.1-90.052-215.52-59.8-59.45-138-88.95-216.1-88.67"/></g><g display="none">	<path d="m62.856 367.44c172.3 498.2 581.35 598.9 644.05 603.57 150.25 16.225 247-80.25 265.9-226.07 0 0-152.1-99.124-227.8-115.42l-120.11 122.87s-64.449 2.9-205.65-141.7c-141.24-144.75-138.55-210.78-138.55-210.78l103.25-105.62c-17.3-107.25-77.75-276.42-196.24-237.33-116.45 37.504-159.55 206-124.85 310.48" display="inline" fill="#bbb"/></g></svg><svg xmlns:xlink="http://www.w3.org/1999/xlink" id="phone-neutral" xml:space="preserve" height="300" viewBox="0 0 1024 1024" width="300" version="1.1" y="1500" x="0px" enable-background="new 0 0 1024 1024"><path d="m60.801 102.4h897.5c25.75 4.201 41.801 16.701 51.398 35.9l-446.5 437.7c-28.949 28.5-76 28.5-105 0l-447.15-438.4c9.501-18.5 25.352-30.6 49.751-35.2zm-47.75 787.1c-7.649-13.6-13.051-29.4-13.051-47.2v-633.6l353.8 346.85-340.75 333.95zm657.15-333.95l353.8-346.85v633.6c0 17.801-5.398 33.6-13.051 47.201l-340.7-333.95zm-606.3 366.05l331.6-325.15 62.699 61.551c29 28.398 76.051 28.398 105 0l62.8-61.55 331.5 325.15h-893.6z" fill="#bbb" clip-rule="evenodd" display="none" fill-rule="evenodd"/><g display="none" fill="#8DB23E">	<polygon id="phone-neutral-arrow-21-icon" points="666.95 459 666.95 355.5 552.95 458.7 552.95 235 467.4 235 467.4 458.7 353.45 355.5 353.45 459 510.2 600.8" display="inline"/>	<path d="m13.1 991.9c-7.702-13.55-13.1-29.3-13.1-47.25v-633.55l353.85 346.8-340.75 334zm50.849 32.1l331.65-325.1 62.699 61.5c29 28.398 76.1 28.398 105.05 0l62.799-61.5 331.6 325.1h-893.8zm960.05-79.35c0 18.648-5.65 34.949-13.9 48.75l-342.25-335.5 355.35-347.6 0.8 634.35z" clip-rule="evenodd" display="inline" fill-rule="evenodd"/>	<path d="m576.65 26.9c-18.1-17.351-41.65-26.15-65.45-26.9v51.4c10.801 0.75 21.35 4.549 29.551 12.35l444.6 283.25 28.6-19.801 8.75-16.949-446.15-283.35z" display="inline"/>	<path d="m446.05 26.9c18.1-17.351 41.65-26.15 65.45-26.9v51.4c-10.801 0.75-21.352 4.549-29.551 12.35l-444.6 283.25-28.6-19.801-8.75-16.95 446.05-283.35z" display="inline"/>	<path d="m576.65 55.699c-18.1-17.35-41.648-26.15-65.449-26.9v51.4c10.801 0.75 21.35 4.551 29.551 12.35l444.6 283.25 28.6-19.799 8.75-16.951-446.15-283.35z" display="inline"/>	<path d="m446.05 55.699c18.1-17.35 41.65-26.15 65.451-26.9v51.4c-10.801 0.75-21.352 4.551-29.551 12.35l-444.6 283.25-28.6-19.8-8.75-16.95 446.05-283.35z" display="inline"/></g><g display="none">	<polygon id="phone-neutral-X_4_" fill="#F05B5A" points="1024 89.086 938.89 -0.125 789.07 157.02 639.15 -0.125 554.04 89.162 703.96 246.23 554.04 403.43 639.05 492.54 789.07 335.44 938.94 492.54 1024 403.43 874.08 246.23" display="inline"/>	<g display="inline">		<path d="m908.86 318.91l-70.059 68.658 37.504 39.281 45.406-44.557v92.188l17.25 18.051 85.062-89.109-149.89-157.19 149.92-157.14-85.08-89.215-149.82 157.14-149.92-157.14-85.11 89.282 149.92 157.07-38.504 40.406h197.12c23.2 3.75 37.65 15 46.25 32.27z" fill="none"/><g fill="#F05B5A">		<path d="m583.52 545.54l-85.012-89.111c-28.301-29.654-28.301-76.334 0-106.01l60.809-63.781h-504.61c-21.902 4.15-36.203 15.002-44.703 31.678l402.45 394.6c26.102 25.68 68.457 25.68 94.512 0l148.31-145.35c-5.301 1.125-10.699 1.775-16.203 1.775-21 0.01-41.06-8.6-55.56-23.8z"/>		<path d="m0 382.3v570.3c0 16.078 4.852 30.305 11.805 42.506l306.64-300.6-318.44-312.21z"/>		<path d="m506.96 786.72c-26.055 25.578-68.41 25.578-94.512 0l-56.406-55.383-298.48 292.66h804.35l-298.44-292.66-56.51 55.38z"/>		<path d="m821.45 480.64l-218.18 213.87 306.74 300.59c6.902-12.201 11.703-26.428 11.703-42.506v-385.37c-14.504-3.352-27.902-10.727-38.305-21.652l-61.95-64.93z"/>	</g></g></g><g display="none" fill="#F05B5A">	<polygon id="phone-neutral-X_5_" points="1024 89.195 938.9 0 789.1 157.12 639.2 0 554.1 89.271 704 246.31 554.1 403.48 639.1 492.58 789.1 335.51 938.95 492.58 1024 403.48 874.1 246.31" display="inline"/>	<path d="m11.657 418.65c172.3 498.2 581.35 598.9 644.05 603.57 150.25 16.225 247-80.25 265.9-226.07 0 0-152.1-99.123-227.8-115.42l-120.11 122.89s-64.45 2.9-205.65-141.7c-141.24-144.75-138.55-210.77-138.55-210.77l103.25-105.62c-17.299-107.25-77.748-276.42-196.25-237.32-116.44 37.49-159.54 205.99-124.84 310.46" display="inline"/></g><g display="none" fill="#8DB23E">	<path d="m11.657 418.65c172.3 498.2 581.35 598.9 644.05 603.57 150.25 16.225 247-80.25 265.9-226.07 0 0-152.1-99.124-227.8-115.42l-120.11 122.89s-64.45 2.9-205.65-141.7c-141.24-144.75-138.54-210.78-138.54-210.78l103.25-105.62c-17.299-107.25-77.748-276.42-196.25-237.32-116.45 37.5-159.55 206-124.85 310.47" display="inline"/>	<g display="inline">		<path d="m661.8 361.45c-28.799-28.6-66.399-42.85-104-42.699l0.5 146.92 146.95-0.451c-0.15-37.64-14.6-75.17-43.45-103.77"/>		<path d="m886.5 135.33c-91.2-90.628-210.55-135.68-329.7-135.33l0.299 92.675c95.45-0.301 191.05 35.799 264.1 108.42 73 72.6 109.8 167.93 110.1 263.38l92.7-0.273c-0.4-119.21-46.3-238.26-137.5-328.88"/>		<path d="m557.3 160.53l0.299 90.373c55-0.174 110 20.651 152.1 62.45 42 41.775 63.1 96.675 63.301 151.65l90.45-0.275c-0.25-78.098-30.301-156.1-90.052-215.52-59.8-59.45-138-88.95-216.1-88.67"/>	</g></g>	<path d="m62.856 367.44c172.3 498.2 581.35 598.9 644.05 603.57 150.25 16.225 247-80.25 265.9-226.07 0 0-152.1-99.124-227.8-115.42l-120.11 122.87s-64.45 2.9-205.65-141.7c-141.25-144.75-138.55-210.78-138.55-210.78l103.25-105.62c-17.3-107.25-77.75-276.42-196.24-237.33-116.45 37.504-159.55 206-124.85 310.48" fill="#bbb"/></svg><svg xmlns:xlink="http://www.w3.org/1999/xlink" id="z-empty" xml:space="preserve" height="300" viewBox="0 0 1024 1024" width="300" version="1.1" y="1800" x="0px" enable-background="new 0 0 1024 1024"><path d="m60.801 102.4h897.5c25.75 4.201 41.801 16.701 51.398 35.9l-446.5 437.7c-28.949 28.5-76 28.5-105 0l-447.15-438.4c9.501-18.5 25.352-30.6 49.751-35.2zm-47.75 787.1c-7.649-13.6-13.051-29.4-13.051-47.2v-633.6l353.8 346.85-340.75 333.95zm657.15-333.95l353.8-346.85v633.6c0 17.801-5.398 33.6-13.051 47.201l-340.7-333.95zm-606.3 366.05l331.6-325.15 62.699 61.551c29 28.398 76.051 28.398 105 0l62.8-61.55 331.5 325.15h-893.6z" fill="#bbb" clip-rule="evenodd" display="none" fill-rule="evenodd"/><g display="none" fill="#8DB23E">	<polygon id="z-empty-arrow-21-icon" points="666.95 459 666.95 355.5 552.95 458.7 552.95 235 467.4 235 467.4 458.7 353.45 355.5 353.45 459 510.2 600.8" display="inline"/>	<path d="m13.1 991.9c-7.702-13.55-13.1-29.3-13.1-47.25v-633.55l353.85 346.8-340.75 334zm50.849 32.1l331.65-325.1 62.699 61.5c29 28.398 76.1 28.398 105.05 0l62.799-61.5 331.6 325.1h-893.8zm960.05-79.35c0 18.648-5.65 34.949-13.9 48.75l-342.25-335.5 355.35-347.6 0.8 634.35z" clip-rule="evenodd" display="inline" fill-rule="evenodd"/>	<path d="m576.65 26.9c-18.1-17.351-41.65-26.15-65.45-26.9v51.4c10.801 0.75 21.35 4.549 29.551 12.35l444.6 283.25 28.6-19.801 8.75-16.949-446.15-283.35z" display="inline"/>	<path d="m446.05 26.9c18.1-17.351 41.65-26.15 65.45-26.9v51.4c-10.801 0.75-21.352 4.549-29.551 12.35l-444.6 283.25-28.6-19.801-8.75-16.95 446.05-283.35z" display="inline"/>	<path d="m576.65 55.699c-18.1-17.35-41.648-26.15-65.449-26.9v51.4c10.801 0.75 21.35 4.551 29.551 12.35l444.6 283.25 28.6-19.799 8.75-16.951-446.15-283.35z" display="inline"/>	<path d="m446.05 55.699c18.1-17.35 41.65-26.15 65.451-26.9v51.4c-10.801 0.75-21.352 4.551-29.551 12.35l-444.6 283.25-28.6-19.8-8.75-16.95 446.05-283.35z" display="inline"/></g><g display="none">	<polygon id="z-empty-X_4_" fill="#F05B5A" points="1024 89.086 938.89 -0.125 789.07 157.02 639.15 -0.125 554.04 89.162 703.96 246.23 554.04 403.43 639.05 492.54 789.07 335.44 938.94 492.54 1024 403.43 874.08 246.23" display="inline"/>	<g display="inline">		<path d="m908.86 318.91l-70.059 68.658 37.504 39.281 45.406-44.557v92.188l17.25 18.051 85.062-89.109-149.89-157.19 149.92-157.14-85.08-89.215-149.82 157.14-149.92-157.14-85.11 89.282 149.92 157.07-38.504 40.406h197.12c23.2 3.75 37.65 15 46.25 32.27z" fill="none"/><g fill="#F05B5A">		<path d="m583.52 545.54l-85.012-89.111c-28.301-29.654-28.301-76.334 0-106.01l60.809-63.781h-504.61c-21.902 4.15-36.203 15.002-44.703 31.678l402.45 394.6c26.102 25.68 68.457 25.68 94.512 0l148.31-145.35c-5.301 1.125-10.699 1.775-16.203 1.775-21 0.01-41.06-8.6-55.56-23.8z"/>		<path d="m0 382.3v570.3c0 16.078 4.852 30.305 11.805 42.506l306.64-300.6-318.44-312.21z"/>		<path d="m506.96 786.72c-26.055 25.578-68.41 25.578-94.512 0l-56.406-55.383-298.48 292.66h804.35l-298.44-292.66-56.51 55.38z"/>		<path d="m821.45 480.64l-218.18 213.87 306.74 300.59c6.902-12.201 11.703-26.428 11.703-42.506v-385.37c-14.504-3.352-27.902-10.727-38.305-21.652l-61.95-64.93z"/>	</g></g></g><g display="none" fill="#F05B5A">	<polygon id="z-empty-X_5_" points="1024 89.195 938.9 0 789.1 157.12 639.2 0 554.1 89.271 704 246.31 554.1 403.48 639.1 492.58 789.1 335.51 938.95 492.58 1024 403.48 874.1 246.31" display="inline"/>	<path d="m11.657 418.65c172.3 498.2 581.35 598.9 644.05 603.57 150.25 16.225 247-80.25 265.9-226.07 0 0-152.1-99.123-227.8-115.42l-120.11 122.89s-64.45 2.9-205.65-141.7c-141.24-144.75-138.55-210.77-138.55-210.77l103.25-105.62c-17.299-107.25-77.748-276.42-196.25-237.32-116.44 37.49-159.54 205.99-124.84 310.46" display="inline"/></g><g display="none" fill="#8DB23E">	<path d="m11.657 418.65c172.3 498.2 581.35 598.9 644.05 603.57 150.25 16.225 247-80.25 265.9-226.07 0 0-152.1-99.124-227.8-115.42l-120.11 122.89s-64.45 2.9-205.65-141.7c-141.24-144.75-138.54-210.78-138.54-210.78l103.25-105.62c-17.299-107.25-77.748-276.42-196.25-237.32-116.45 37.5-159.55 206-124.85 310.47" display="inline"/>	<g display="inline">		<path d="m661.8 361.45c-28.799-28.6-66.399-42.85-104-42.699l0.5 146.92 146.95-0.451c-0.15-37.64-14.6-75.17-43.45-103.77"/>		<path d="m886.5 135.33c-91.2-90.628-210.55-135.68-329.7-135.33l0.299 92.675c95.45-0.301 191.05 35.799 264.1 108.42 73 72.6 109.8 167.93 110.1 263.38l92.7-0.273c-0.4-119.21-46.3-238.26-137.5-328.88"/>		<path d="m557.3 160.53l0.299 90.373c55-0.174 110 20.651 152.1 62.45 42 41.775 63.1 96.675 63.301 151.65l90.45-0.275c-0.25-78.098-30.301-156.1-90.052-215.52-59.8-59.45-138-88.95-216.1-88.67"/>	</g></g><g display="none">	<path d="m62.856 367.44c172.3 498.2 581.35 598.9 644.05 603.57 150.25 16.225 247-80.25 265.9-226.07 0 0-152.1-99.124-227.8-115.42l-120.11 122.87s-64.45 2.9-205.65-141.7c-141.25-144.75-138.55-210.78-138.55-210.78l103.25-105.62c-17.3-107.25-77.75-276.42-196.24-237.33-116.45 37.504-159.55 206-124.85 310.48" display="inline" fill="#bbb"/></g></svg></svg>
