<svg width="34" height="32" viewBox="0 0 32 32" xmlns="http://www.w3.org/2000/svg"><path d="M28.7.9H5.2C2.8.9.9 2.8.9 5.2v11.5c0 2.4 1.9 4.3 4.3 4.3h23.5c2.4 0 4.3-1.9 4.3-4.3V5.2C33 2.8 31.1.9 28.7.9zm-9.1 14.5c-.5.5-1.2.8-2 .8v1.4h-1.1v-1.3c-.9-.1-1.6-.4-2.1-.9-.6-.5-.8-1.3-.8-2.3h1.9c0 .6.1 1 .4 1.3.3.3.6.4 1.1.4.4 0 .7-.1 1-.3.2-.4.3-.7.3-1.1 0-.4-.1-.7-.3-.9-.2-.2-.6-.4-1.1-.6-1-.4-1.8-.8-2.3-1.2-.5-.5-.7-1.1-.7-1.9 0-.8.2-1.4.7-1.9.5-.5 1.1-.8 2-.9V4.5h1.1V6c.8.1 1.4.5 1.9 1 .5.6.7 1.3.7 2.1h-1.9c0-.5-.1-1-.3-1.2-.2-.2-.5-.4-.9-.4s-.7.1-.9.3c-.2.2-.3.5-.3.9s.1.6.3.9c.2.2.6.4 1.1.7 1 .4 1.8.8 2.2 1.3.5.5.7 1.1.7 1.9 0 .8-.2 1.4-.7 1.9z"/></svg>