<svg xmlns="http://www.w3.org/2000/svg" viewBox="0 0 32 20"><style>.st0{fill:#ececec;stroke:#999;stroke-width:2}.st1{fill:#999}</style><path id="Rectangle-5_2_" class="st0" d="M4.3 1h23.5C29.5 1 31 2.5 31 4.3v11.5c0 1.8-1.5 3.3-3.3 3.3H4.3C2.5 19 1 17.5 1 15.7V4.3C1 2.5 2.5 1 4.3 1z"/><path class="st1" d="M17.3 12.4c0-.4-.1-.7-.3-.9-.2-.2-.6-.4-1.1-.6s-.9-.4-1.3-.6c-.4-.2-.7-.4-.9-.6-.3-.2-.5-.5-.6-.8s-.2-.7-.2-1.2c0-.8.2-1.4.7-1.9s1.1-.8 2-.9V3.5h1.1V5c.8.1 1.4.5 1.9 1 .5.6.7 1.3.7 2.2h-2c0-.5-.1-1-.3-1.2-.2-.3-.5-.4-.9-.4s-.7.1-.9.3c-.2.1-.3.4-.3.8 0 .3.1.6.3.8s.6.4 1.1.6 1 .4 1.3.6c.4.2.6.4.9.7.2.2.4.5.6.8.1.3.2.7.2 1.1 0 .8-.2 1.4-.7 1.9s-1.1.8-2 .9v1.4h-1.1v-1.4c-.9-.1-1.7-.4-2.2-1-.5-.6-.8-1.3-.8-2.2h2c0 .5.1 1 .4 1.2.3.3.6.4 1.1.4.4 0 .7-.1 1-.3.2-.2.3-.5.3-.8z"/></svg>