<svg width="32" height="32" viewBox="0 0 45 32" xmlns="http://www.w3.org/2000/svg"><title>svg</title><path d="M38.702 31.507H5.82c-3.014 0-5.478-2.467-5.478-5.479V6.849A5.495 5.495 0 0 1 5.824 1.37h32.877c3.014 0 5.479 2.465 5.479 5.479v19.179c0 3.012-2.463 5.478-5.478 5.479zm-9.59-11.149c0-.455-.064-.883-.191-1.284-.128-.403-.281-.751-.462-1.046s-.44-.584-.779-.867a8.813 8.813 0 0 0-.907-.682 9.22 9.22 0 0 0-1.107-.582c-.469-.214-.84-.373-1.113-.479a59.192 59.192 0 0 0-1.19-.431 36.69 36.69 0 0 1-1.025-.376 19.605 19.605 0 0 1-.888-.367c-.367-.16-.64-.302-.821-.424s-.376-.273-.58-.451c-.205-.177-.348-.365-.431-.565s-.125-.417-.125-.657c0-.619.292-1.124.879-1.517.587-.39 1.344-.584 2.273-.584.41 0 .828.05 1.252.156a6.804 6.804 0 0 1 1.952.79c.267.16.459.278.57.362s.184.136.213.164a.485.485 0 0 0 .395.097.406.406 0 0 0 .338-.218l1.187-1.995c.118-.181.093-.356-.072-.52a4.397 4.397 0 0 0-.218-.191 7.37 7.37 0 0 0-.573-.398 7.048 7.048 0 0 0-.929-.512c-.327-.15-.751-.302-1.276-.459a8.862 8.862 0 0 0-1.619-.312v-2.4a.405.405 0 0 0-.131-.314.47.47 0 0 0-.338-.122h-1.983a.469.469 0 0 0-.33.129.408.408 0 0 0-.139.306v2.46c-1.535.274-2.783.885-3.738 1.831-.96.946-1.437 2.049-1.437 3.306 0 .373.042.728.125 1.064s.185.64.306.909c.122.269.296.533.522.793.223.259.437.481.637.668.2.188.462.381.785.582s.598.362.829.484c.23.122.534.264.915.423.381.16.682.281.904.362.218.083.519.195.9.342.529.191.918.339 1.174.445.255.103.577.25.968.435.39.185.676.356.857.511.181.153.345.348.491.573.146.227.218.467.218.723 0 .719-.301 1.274-.902 1.665-.602.39-1.299.587-2.091.587-.362 0-.723-.038-1.085-.111-1.27-.237-2.458-.804-3.562-1.706l-.031-.028c-.088-.1-.205-.139-.352-.122-.156.018-.269.072-.337.163l-1.51 1.849c-.146.181-.136.367.028.557.05.056.136.139.259.248.121.109.348.278.682.512.334.232.696.451 1.085.654.39.206.886.409 1.489.609a9.83 9.83 0 0 0 1.869.423v2.39c0 .118.047.223.139.306a.464.464 0 0 0 .331.131h1.98c.139 0 .25-.042.338-.122a.41.41 0 0 0 .132-.314v-2.39c1.555-.237 2.819-.858 3.791-1.864.974-1.006 1.461-2.205 1.461-3.598h-.004z"/></svg>