<svg id="Layer_1" data-name="Layer 1" xmlns="http://www.w3.org/2000/svg" viewBox="0 0 19 19"><defs><style>.cls-1{fill:none}.cls-2{clip-path:url(#clip-path)}.cls-3{fill:#010101;fill-rule:evenodd}</style><clipPath id="clip-path"><path class="cls-1" d="M98.48-40.57l6.25-6.13 1.18 1.16a1.43 1.43 0 0 0 2 0l1.19-1.16 6.24 6.13zm11.43-6.9l6.67-6.53v11.94a1.72 1.72 0 0 1-.25.89zm-12.38 6.29a1.72 1.72 0 0 1-.25-.89V-54l6.72 6.53zm.9-14.82h16.91a1.2 1.2 0 0 1 1 .68l-8.42 8.24a1.4 1.4 0 0 1-2 0l-8.43-8.26a1.24 1.24 0 0 1 .94-.66z"/></clipPath></defs><title>Artboard 1</title><path class="cls-3" d="M17.77 6.94H6.4a1.25 1.25 0 0 0-1.23 1.41v1l1.1.77.23.17c1.19.84 2.4 1.67 3.6 2.51.5.35 1.35 1.06 2 1.06.63 0 1.48-.71 2-1.06l2.47-1.72L19 9.45V8.18a1.24 1.24 0 0 0-1.23-1.24z"/><path class="cls-3" d="M15.72 12.84c-.45.31-.9.62-1.34.94a4.2 4.2 0 0 1-2.29 1.07 4.26 4.26 0 0 1-2.3-1.07l-.72-.51-3.9-2.82v6.13a1.23 1.23 0 0 0 1.23 1.23h11.37A1.24 1.24 0 0 0 19 16.58v-6.13l-3.29 2.39zM13.83 3.32v-.9a1.24 1.24 0 0 0-1.23-1.23H1.23A1.25 1.25 0 0 0 0 2.59v1l1.1.78.23.17.56.39a1.92 1.92 0 0 1 1.93-1.61zM0 6.57v4.25a1.24 1.24 0 0 0 1.23 1.24h.6V6L0 4.69z"/><path class="cls-3" d="M16.42 6.19V5.3a1.24 1.24 0 0 0-1.24-1.23H3.82a1.25 1.25 0 0 0-1.24 1.4v1l1.1.77.23.18.57.39A1.92 1.92 0 0 1 6.4 6.19zM2.58 9.44v4.26a1.24 1.24 0 0 0 1.24 1.23h.6v-6L2.58 7.57z"/></svg>