<?xml version="1.0" encoding="utf-8"?>
<!-- Generator: Adobe Illustrator 15.1.0, SVG Export Plug-In . SVG Version: 6.00 Build 0)  -->
<!DOCTYPE svg PUBLIC "-//W3C//DTD SVG 1.1//EN" "http://www.w3.org/Graphics/SVG/1.1/DTD/svg11.dtd">
<svg version="1.1" xmlns="http://www.w3.org/2000/svg" xmlns:xlink="http://www.w3.org/1999/xlink" x="0px" y="0px" width="64px"
	 height="64px" viewBox="0 0 64 64" enable-background="new 0 0 64 64" xml:space="preserve">
<g id="Layer_16">
	<g>
		<g id="Fill_1_">
			
				<linearGradient id="SVGID_1_" gradientUnits="userSpaceOnUse" x1="2" y1="34" x2="62" y2="34" gradientTransform="matrix(1 0 0 -1 0 66)">
				<stop  offset="0" style="stop-color:#31A2DB"/>
				<stop  offset="1" style="stop-color:#21AAE1"/>
			</linearGradient>
			<circle fill="url(#SVGID_1_)" cx="32" cy="32" r="30"/>
		</g>
		<path fill="#FFFFFF" d="M32.001,61.4c8.983,0,17.022-4.036,22.416-10.39c-0.535-0.186-1.071-0.372-1.588-0.591
			c-2.761-1.162-5.822-2.516-8.578-3.645c-0.787-0.213-1.571-0.43-2.356-0.645c-0.939-0.645-1.857-2.792-2.359-3.857
			c-0.5-0.071-1-0.145-1.502-0.215c0.078-1.651,1.1-1.74,1.502-3.002c0.354-1.113,0.035-2.56,0.598-3.59
			c0.391-0.716,1.268-0.721,1.709-1.334c0.4-0.556,0.66-1.525,0.787-2.207c0.227-1.246,0.424-2.951-0.166-4.187
			c-0.344-0.712-0.557-0.778-0.652-1.642c-0.115-1.045,0.31-4.449,0.326-5.187c0.043-1.911-0.004-2.065-0.465-3.927
			c0,0-0.562-1.687-1.441-2.194l-1.756-0.303l-1.084-1.005c-4.369-2.688-9.056-0.803-11.563,0.214
			c-3.614,1.173-5.9,4.713-4.306,12.277c0.272,1.291-0.707,1.868-0.644,2.573c0.142,1.541,0.171,5.247,1.626,6.159
			c0.137,0.085,1.169,0.345,1.162,0.273c0.145,1.502,0.285,3.004,0.43,4.504c0.363,0.998,1.235,1.105,1.488,2.517l-1.116,0.271
			c-0.501,1.066-1.421,3.215-2.358,3.858c-0.786,0.215-1.572,0.431-2.358,0.644c-2.755,1.129-5.816,2.482-8.578,3.646
			c-0.516,0.218-1.053,0.405-1.588,0.591C14.977,57.364,23.016,61.4,32.001,61.4z"/>
		<g id="Stroke_1_">
			<circle fill="none" stroke="#1788CA" stroke-width="2" stroke-miterlimit="10" cx="32" cy="32" r="30"/>
		</g>
	</g>
</g>
<g id="Layer_17" display="none">
</g>
<g id="Clipping_Mask" display="none">
	<g display="inline">
		<defs>
			<rect id="SVGID_2_" x="32.001" y="-2.875" width="44.999" height="71"/>
		</defs>
		<clipPath id="SVGID_3_">
			<use xlink:href="#SVGID_2_"  overflow="visible"/>
		</clipPath>
		<g clip-path="url(#SVGID_3_)">
			<g id="Fill_copy_1_">
				<circle fill="#F49626" cx="31.977" cy="32" r="30"/>
			</g>
			<g>
				<path fill="#FFFFFF" d="M31.978,61.4c8.983,0,17.022-4.035,22.416-10.389c-0.535-0.186-1.071-0.373-1.588-0.592
					c-2.761-1.162-5.822-2.516-8.578-3.645c-0.787-0.213-1.571-0.43-2.356-0.645c-0.939-0.645-1.857-2.791-2.359-3.857
					c-0.5-0.07-1-0.145-1.502-0.215c0.078-1.65,1.1-1.74,1.502-3.002c0.354-1.113,0.035-2.561,0.598-3.59
					c0.391-0.716,1.268-0.721,1.709-1.334c0.4-0.556,0.66-1.525,0.787-2.207c0.227-1.246,0.424-2.951-0.166-4.187
					c-0.344-0.712-0.557-0.778-0.652-1.642c-0.115-1.045,0.31-4.45,0.326-5.187c0.043-1.911-0.004-2.065-0.465-3.927
					c0,0-0.562-1.687-1.441-2.194l-1.756-0.303l-1.084-1.005c-4.369-2.688-9.055-0.803-11.563,0.214
					c-3.614,1.173-5.9,4.713-4.306,12.277c0.272,1.291-0.707,1.868-0.644,2.573c0.142,1.541,0.171,5.247,1.626,6.159
					c0.137,0.085,1.169,0.345,1.162,0.273c0.145,1.502,0.285,3.004,0.43,4.504c0.363,0.998,1.235,1.105,1.488,2.518l-1.116,0.27
					c-0.501,1.066-1.421,3.215-2.358,3.859c-0.786,0.215-1.572,0.43-2.358,0.643c-2.755,1.129-5.816,2.482-8.578,3.646
					c-0.516,0.217-1.053,0.404-1.588,0.59C14.954,57.365,22.993,61.4,31.978,61.4z"/>
			</g>
			<g id="Stroke_copy_1_">
				<circle fill="none" stroke="#F68924" stroke-width="2" stroke-miterlimit="10" cx="31.977" cy="32" r="30"/>
			</g>
		</g>
	</g>
</g>
</svg>
